<svg xmlns="http://www.w3.org/2000/svg" width="800" height="450" viewBox="0 0 800 450" role="img" aria-labelledby="title desc">
  <title id="title">ProSale sales management dashboard</title>
  <desc id="desc">A local portfolio thumbnail showing a sales dashboard, chart, and mobile app panel.</desc>
  <rect width="800" height="450" fill="#10131f"/>
  <rect x="52" y="48" width="696" height="354" rx="22" fill="#171b2b"/>
  <rect x="92" y="86" width="410" height="54" rx="12" fill="#232a42"/>
  <rect x="528" y="86" width="148" height="278" rx="22" fill="#0f1220" stroke="#00f2fe" stroke-width="4"/>
  <rect x="556" y="130" width="92" height="16" rx="8" fill="#4facfe"/>
  <rect x="556" y="166" width="68" height="68" rx="14" fill="#2b334f"/>
  <rect x="556" y="252" width="92" height="12" rx="6" fill="#7bdff2"/>
  <rect x="556" y="278" width="74" height="12" rx="6" fill="#46506f"/>
  <rect x="556" y="304" width="84" height="12" rx="6" fill="#46506f"/>
  <rect x="92" y="176" width="110" height="88" rx="16" fill="#26304b"/>
  <rect x="230" y="176" width="110" height="88" rx="16" fill="#26304b"/>
  <rect x="368" y="176" width="110" height="88" rx="16" fill="#26304b"/>
  <path d="M98 335 L168 286 L236 312 L312 244 L388 268 L478 210" fill="none" stroke="#00f2fe" stroke-width="12" stroke-linecap="round" stroke-linejoin="round"/>
  <circle cx="168" cy="286" r="10" fill="#4facfe"/>
  <circle cx="312" cy="244" r="10" fill="#4facfe"/>
  <circle cx="478" cy="210" r="10" fill="#4facfe"/>
  <text x="92" y="122" fill="#f6f8ff" font-family="Arial, sans-serif" font-size="28" font-weight="700">ProSale</text>
</svg>
