<svg xmlns="http://www.w3.org/2000/svg" width="800" height="450" viewBox="0 0 800 450" role="img" aria-labelledby="title desc">
  <title id="title">Brothers Fix warehouse ERP app</title>
  <desc id="desc">A local portfolio thumbnail showing a technician portrait, warehouse boxes, and ERP task cards.</desc>
  <rect width="800" height="450" fill="#10131f"/>
  <rect x="64" y="58" width="672" height="334" rx="24" fill="#171b2b"/>
  <rect x="96" y="90" width="220" height="274" rx="24" fill="#202844"/>
  <circle cx="206" cy="146" r="46" fill="#f0b28c"/>
  <path d="M160 138 c10 -42 76 -54 98 -13 c-22 -8 -45 -7 -69 2 c-10 4 -19 8 -29 11z" fill="#23202a"/>
  <path d="M184 166 c13 12 31 12 44 0" fill="none" stroke="#5d3328" stroke-width="6" stroke-linecap="round"/>
  <circle cx="190" cy="146" r="5" fill="#10131f"/>
  <circle cx="224" cy="146" r="5" fill="#10131f"/>
  <path d="M154 364 v-86 c0 -42 30 -76 67 -76 h0 c37 0 67 34 67 76 v86z" fill="#00f2fe"/>
  <path d="M176 364 v-112 h62 v112z" fill="#f6f8ff"/>
  <path d="M154 280 h134" stroke="#4facfe" stroke-width="18" stroke-linecap="round"/>
  <rect x="110" y="306" width="56" height="42" rx="8" fill="#c5904b"/>
  <rect x="172" y="318" width="58" height="46" rx="8" fill="#d8a65f"/>
  <rect x="236" y="300" width="58" height="64" rx="8" fill="#b97b3c"/>
  <path d="M128 326 h20 m44 15 h22 m42 -18 h20" stroke="#5d3a1c" stroke-width="5" stroke-linecap="round"/>
  <rect x="354" y="108" width="286" height="54" rx="14" fill="#232a42"/>
  <rect x="354" y="192" width="356" height="44" rx="12" fill="#26304b"/>
  <rect x="354" y="260" width="296" height="44" rx="12" fill="#26304b"/>
  <rect x="354" y="328" width="220" height="20" rx="10" fill="#4facfe"/>
  <circle cx="664" cy="126" r="36" fill="#00f2fe"/>
  <path d="M654 126 l9 9 18 -22" fill="none" stroke="#10131f" stroke-width="8" stroke-linecap="round" stroke-linejoin="round"/>
  <text x="354" y="143" fill="#f6f8ff" font-family="Arial, sans-serif" font-size="26" font-weight="700">Warehouse ERP</text>
  <text x="382" y="220" fill="#f6f8ff" font-family="Arial, sans-serif" font-size="20" font-weight="700">Inventory</text>
  <text x="382" y="288" fill="#f6f8ff" font-family="Arial, sans-serif" font-size="20" font-weight="700">Multi Client</text>
</svg>
