<svg xmlns="http://www.w3.org/2000/svg" width="800" height="450" viewBox="0 0 800 450" role="img" aria-labelledby="title desc">
  <title id="title">Fast Site Check SEO tool</title>
  <desc id="desc">A local portfolio thumbnail showing SEO, speed, and technical health scores.</desc>
  <rect width="800" height="450" fill="#10131f"/>
  <rect x="54" y="50" width="692" height="350" rx="24" fill="#171b2b"/>
  <rect x="96" y="92" width="608" height="52" rx="14" fill="#232a42"/>
  <circle cx="188" cy="250" r="76" fill="#26304b"/>
  <path d="M140 250 a48 48 0 0 1 92 -20" fill="none" stroke="#00f2fe" stroke-width="14" stroke-linecap="round"/>
  <text x="160" y="264" fill="#f6f8ff" font-family="Arial, sans-serif" font-size="32" font-weight="700">92</text>
  <rect x="326" y="198" width="300" height="28" rx="14" fill="#26304b"/>
  <rect x="326" y="198" width="246" height="28" rx="14" fill="#00f2fe"/>
  <rect x="326" y="258" width="300" height="28" rx="14" fill="#26304b"/>
  <rect x="326" y="258" width="214" height="28" rx="14" fill="#4facfe"/>
  <rect x="326" y="318" width="300" height="28" rx="14" fill="#26304b"/>
  <rect x="326" y="318" width="264" height="28" rx="14" fill="#7bdff2"/>
  <text x="112" y="126" fill="#f6f8ff" font-family="Arial, sans-serif" font-size="26" font-weight="700">Fast Site Check</text>
</svg>
